<svg xmlns="http://www.w3.org/2000/svg" width="25" height="25" fill="url(#grad1)" class="bi bi-speedometer" viewBox="0 0 16 16">
  <path d="M8 0a1 1 0 0 1 1 1v5.268l4.562-2.634a1 1 0 1 1 1 1.732L10 8l4.562 2.634a1 1 0 1 1-1 1.732L9 9.732V15a1 1 0 1 1-2 0V9.732l-4.562 2.634a1 1 0 1 1-1-1.732L6 8 1.438 5.366a1 1 0 0 1 1-1.732L7 6.268V1a1 1 0 0 1 1-1z"/>
  <defs>
  <linearGradient id="grad1" x1="0%" y1="0%" x2="100%" y2="0%">
      <stop offset="0%" style="stop-color:white;stop-opacity:1" />
      <stop offset="70%" style="stop-color:white;stop-opacity:1" />
      <stop offset="100%" style="stop-color:white;stop-opacity:1" />
    </linearGradient>
  </defs>
</svg>