<svg xmlns="http://www.w3.org/2000/svg" width="16" height="16" fill="url(#grad1)" class="bi bi-check2-circle" viewBox="0 0 16 16">
  <path d="M2.5 8a5.5 5.5 0 0 1 8.25-4.764.5.5 0 0 0 .5-.866A6.5 6.5 0 1 0 14.5 8a.5.5 0 0 0-1 0 5.5 5.5 0 1 1-11 0z"/>
  <path d="M15.354 3.354a.5.5 0 0 0-.708-.708L8 9.293 5.354 6.646a.5.5 0 1 0-.708.708l3 3a.5.5 0 0 0 .708 0l7-7z"/>
  <defs>
  <linearGradient id="grad1" x1="0%" y1="0%" x2="100%" y2="0%">
      <stop offset="0%" style="stop-color:red;stop-opacity:1" />
      <stop offset="100%" style="stop-color:yellow;stop-opacity:1" />
    </linearGradient>
  </defs>
</svg>