<svg xmlns="http://www.w3.org/2000/svg" width="25" height="25" fill="url(#grad1)" class="bi bi-speedometer" viewBox="0 0 16 16">
  <path d="M2 1a1 1 0 0 0-1 1v8a1 1 0 0 0 1 1h9.586a2 2 0 0 1 1.414.586l2 2V2a1 1 0 0 0-1-1H2zm12-1a2 2 0 0 1 2 2v12.793a.5.5 0 0 1-.854.353l-2.853-2.853a1 1 0 0 0-.707-.293H2a2 2 0 0 1-2-2V2a2 2 0 0 1 2-2h12z"/>
  <defs>
  <linearGradient id="grad1" x1="0%" y1="0%" x2="100%" y2="0%">
      <stop offset="0%" style="stop-color:white;stop-opacity:1" />
      <stop offset="70%" style="stop-color:white;stop-opacity:1" />
      <stop offset="100%" style="stop-color:white;stop-opacity:1" />
    </linearGradient>
  </defs>
</svg>