<svg xmlns="http://www.w3.org/2000/svg" width="25" height="25" fill="url(#grad1)" class="bi bi-speedometer" viewBox="0 0 16 16">
  <path d="M8.97 4.97a.75.75 0 0 1 1.071 1.05l-3.992 4.99a.75.75 0 0 1-1.08.02L2.324 8.384a.75.75 0 1 1 1.06-1.06l2.094 2.093L8.95 4.992a.252.252 0 0 1 .02-.022zm-.92 5.14l.92.92a.75.75 0 0 0 1.079-.02l3.992-4.99a.75.75 0 1 0-1.091-1.028L9.477 9.417l-.485-.486-.943 1.179z"/>
    <defs>
  <linearGradient id="grad1" x1="0%" y1="0%" x2="100%" y2="0%">
      <stop offset="0%" style="stop-color:white;stop-opacity:1" />
      <stop offset="70%" style="stop-color:white;stop-opacity:1" />
      <stop offset="100%" style="stop-color:white;stop-opacity:1" />
    </linearGradient>
  </defs>
</svg>